<?xml version="1.0" encoding="utf-8"?>
<!-- Generator: Adobe Illustrator 27.5.0, SVG Export Plug-In . SVG Version: 6.00 Build 0)  -->
<svg version="1.1" xmlns="http://www.w3.org/2000/svg" xmlns:xlink="http://www.w3.org/1999/xlink" x="0px" y="0px"
	 viewBox="0 0 500 500" style="enable-background:new 0 0 500 500;" xml:space="preserve">
<g id="BACKGROUND">
	<g>
		<rect style="fill:#E9F7FF;" width="500" height="500"/>
	</g>
</g>
<g id="OBJECTS">
	<g>
		<g>
			<circle style="fill:#FFFFFF;" cx="250" cy="250" r="42.789"/>
			<g>
				<path style="fill:#88FFF6;" d="M372.791,156.049c-0.397-1.217-0.711-2.506-1.101-3.759c0.127-0.648,0.12-1.368-0.072-2.155
					c-3.371-8.831-10.217-16.487-18.908-20.323c-1.987-0.831-3.977-1.795-6.156-1.948c-0.301,0.007-0.577,0.052-0.848,0.101
					c-5.494-1.857-11.396-2.729-17.14-3.043c-7.117-0.344-14.333-0.785-21.42,0.114c-0.837,0.25-1.504,0.62-2.026,1.067
					c-5.569,0.101-11.138,0.233-16.707,0.128c-10.682-0.073-21.352-0.794-32.036-0.725c-3.91,0.027-7.815,0.195-11.719,0.395
					c-4.606-0.24-9.239-0.115-13.841-0.432c-12.931-0.992-25.9-0.94-38.857-0.616c-4.7,0.097-9.393,0.365-14.088,0.579
					c-0.683,0.064-1.401,0.016-2.087,0.095c-11.057-0.491-22.337-0.054-31.772,6.143c-9.252,6.439-16.655,16.46-19.321,27.474
					c-1.969,8.156-0.49,16.53-0.091,24.776c0.035,0.588,0.058,1.176,0.084,1.764c-0.539,13.278-1.004,26.568-0.871,39.855
					c-0.01,1.83,0.978,3.184,2.309,3.912c-0.434,24.39-2.534,48.76-1.45,73.152c0.442,7.844,0.657,15.752,1.438,23.585
					c-0.025,0.077-0.061,0.143-0.083,0.223c-0.364,2.3-0.438,4.705-0.287,7.145c-1.045,1.531-0.782,3.48-0.458,5.282
					c0.253,1.855,0.607,3.699,1.101,5.505c2.178,8.395,7.311,15.666,13.735,21.385c2.608,2.34,5.373,4.556,8.417,6.303
					c1.213,0.562,2.334,1.534,3.701,1.616c1.463,0.24,2.682-0.218,3.568-1.027c4.883,1.694,11.374,1.575,15.594,1.827
					c7.265,0.193,14.534,0.247,21.801,0.208c12.852-0.285,25.695,0.13,38.542,0.443c10.165,0.233,20.328-0.079,30.493-0.148
					c3.225-0.024,6.45-0.042,9.674,0.005c1.569-0.092,3.28,0.361,4.734-0.358c0.18-0.061,0.35-0.143,0.516-0.23
					c0.751-0.055,1.476-0.17,2.132-0.422c0.147-0.05,0.285-0.117,0.423-0.185c14.263,0.641,28.535,1.087,42.749,0.279
					c0.761,0.668,1.747,1.091,2.896,1.064c6.233,0.002,12.566-0.172,18.584-1.954c6.384-1.803,12.364-4.949,17.207-9.513
					c5.025-4.998,9.266-11.014,11.484-17.791c1.204-3.841,1.617-7.874,2.052-11.86c0.481-4.798,0.633-9.685-0.339-14.433
					c-0.049-0.24-0.115-0.47-0.19-0.695c0.736-6.079,1.088-12.2,1.009-18.35c0.269-12.593-0.142-25.188-0.451-37.777
					c-0.038-2.82-0.211-5.635-0.414-8.448c1.688-14.191,1.172-28.57,1.54-42.845C376.141,192.984,377.159,174.134,372.791,156.049z
					 M362.132,314.381c0.064,2.448,0.107,4.896,0.091,7.344c0.014,1.002-0.147,2.07,0.304,2.991c-0.101,2.799-0.179,5.6-0.214,8.402
					c-0.066,2.965-0.189,5.93-0.154,8.896c0.011,0.141,0.017,0.283,0.023,0.426c-3.068,7.185-7.69,12.193-14.618,16.43
					c-3.908,2.035-2.393,1.401-6.084,2.594c-0.966,0.259-2.037,0.379-2.774,1.115c-0.239,0.161-0.443,0.346-0.632,0.542
					c-0.37-0.539-0.838-1.009-1.401-1.342c-2.415-1.269-5.305-0.193-7.908-0.256c-4.562,0.301-9.114,0.74-13.68,0.979
					c-9.519,0.514-19.054,0.563-28.585,0.543c-2.837-0.028-5.675-0.011-8.511-0.093c-0.946-0.062-1.945-0.183-2.807,0.274
					c-12.482-0.395-24.961-0.841-37.445-1.176c-2.067,0.13-4.326-0.594-6.271,0.236c-0.817,0.319-1.435,0.809-1.882,1.393
					c-9.935-0.127-19.869-0.318-29.785-1.037c-1.586,0.037-2.74,0.693-3.486,1.626c-2.456-0.081-4.913-0.173-7.368-0.274
					c-10.773-0.312-21.831-0.251-29.211-2.062c-2.88-0.643-5.741-1.373-8.586-2.159c-0.321-0.27-0.64-0.547-0.956-0.845
					c-2.261-2.04-4.323-4.304-6.196-6.704c0.237,0.307,0.474,0.614,0.712,0.921c-1.283-1.432-2.137-3.503-3.802-4.512
					c-1.501-2.931-2.058-4.638-3.109-9.794c-0.616-1.856-0.441-13.9-0.142-20.013c0.071-3.906,0.155-7.812,0.268-11.717
					c0.526-0.715,0.852-1.59,0.83-2.593c-0.339-6.188-0.845-12.371-0.871-18.571c-0.018-2.373-0.028-4.747,0.078-7.118
					c0.082-0.939,0.176-1.93-0.316-2.773c-0.266-0.681-0.656-1.213-1.112-1.635c0.029-0.431,0.056-0.863,0.087-1.293
					c1.145-17.985,1.286-35.999,1.213-54.014c-0.009-3.456-0.109-6.911-0.254-10.364c0.019-0.804-0.2-1.553-0.577-2.207
					c0.051-1.247,0.105-2.494,0.15-3.741c0.589-10.274,0.251-20.564,0.554-30.843c0.285-8.362,1.152-13.347,3.036-20.94
					c3.126-3.371,8.71-8.685,9.976-9.151c3.859-2.304,2.639-1.738,7.063-3.136c4.761-1.132,4.084-0.897,9.633-1.157
					c1.554-0.136,3.3,0.153,4.894-0.02c0.039,0.023,0.067,0.055,0.107,0.077c1.777,1.045,3.923,0.472,5.877,0.529
					c3.574-0.122,7.146-0.285,10.721-0.369c13.534-0.494,27.066-0.317,40.594,0.264c5.695,0.157,11.39,0.37,17.088,0.381
					c2.4-0.05,4.864-0.035,7.207-0.569c0.541-0.16,1.028-0.426,1.463-0.754c4.655,0.103,9.311,0.109,13.967,0.184
					c12.893,0.297,25.793,0.273,38.684,0.612c1.044,1.026,2.565,1.573,4.293,1.093c0.983-0.327,2.095-0.606,3.296-0.845
					c0.413,0.016,0.827,0.03,1.24,0.046c0.781,0.21,1.611,0.222,2.397,0.001c0.605-0.152,1.122-0.428,1.567-0.776
					c7.485-0.704,16.365-0.291,21.448,0.757c5.924,1,6.884,2.824,10.456,4.911c0.421,0.211,0.852,0.335,1.281,0.388
					c2.658,2.523,3.728,3.911,5.743,7.938c0.623,1.563,1.043,3.2,1.318,4.86c0.163,0.594,0.466,1.158,0.859,1.648
					c-0.153,1.711,0.447,3.543,0.497,5.249c0.198,1.763,0.382,3.528,0.515,5.298c0.335,3.552,0.333,7.141,0.508,10.711
					c0,0.053-0.011,0.103-0.009,0.156c-0.356,4.125-0.438,8.267-0.48,12.405c-0.219,11.421-0.243,22.843-0.467,34.263
					c-0.073,9.874-0.403,19.753-0.002,29.624c0.312,3.713,0.046,7.63,1.205,11.197c-0.417,6.946-1.115,13.877-1.36,20.834
					C361.971,296.565,361.866,305.477,362.132,314.381z"/>
				<path style="fill:#88FFF6;" d="M403.128,270.4c0.58-1.141,1.269-2.275,1.879-3.436c0.548-0.368,1.052-0.882,1.472-1.575
					c3.86-8.628,4.434-18.882,1-27.741c-0.817-1.993-1.543-4.081-2.975-5.73c-0.218-0.208-0.444-0.371-0.671-0.528
					c-2.572-5.198-6.128-9.988-9.968-14.271c-4.79-5.276-9.58-10.691-15.227-15.066c-0.769-0.415-1.502-0.625-2.187-0.678
					c-4.009-3.866-8.04-7.711-11.904-11.723c-7.502-7.605-14.537-15.659-22.14-23.166c-2.784-2.745-5.664-5.388-8.566-8.007
					c-3.087-3.427-6.452-6.615-9.482-10.092c-8.442-9.844-17.649-18.979-27.04-27.911c-3.392-3.255-6.9-6.383-10.371-9.552
					c-0.529-0.438-1.002-0.979-1.543-1.409c-7.471-8.166-15.756-15.833-26.81-18.122c-11.095-1.989-23.415-0.137-33.089,5.765
					c-7.159,4.375-12.035,11.342-17.584,17.455c-0.391,0.44-0.79,0.873-1.188,1.307c-9.77,9.007-19.496,18.077-28.798,27.566
					c-1.301,1.286-1.56,2.943-1.134,4.399c-17.553,16.939-36.27,32.687-52.752,50.701c-5.234,5.859-10.673,11.603-15.66,17.694
					c-0.072,0.037-0.145,0.058-0.216,0.1c-1.884,1.369-3.637,3.017-5.256,4.849c-1.821,0.344-3.013,1.908-4.059,3.411
					c-1.133,1.491-2.187,3.044-3.114,4.672c-4.396,7.476-5.908,16.247-5.409,24.834c0.19,3.498,0.578,7.021,1.495,10.408
					c0.46,1.255,0.566,2.735,1.475,3.76c0.865,1.204,2.05,1.742,3.249,1.797c2.255,4.651,6.929,9.156,9.735,12.318
					c5.001,5.273,10.103,10.451,15.268,15.563c9.29,8.886,18.078,18.261,26.941,27.566c7.023,7.353,14.43,14.318,21.666,21.457
					c2.297,2.264,4.59,4.531,6.837,6.844c1.175,1.044,2.064,2.574,3.601,3.094c0.17,0.085,0.348,0.147,0.528,0.202
					c0.57,0.492,1.164,0.923,1.806,1.209c0.139,0.069,0.284,0.119,0.43,0.168c9.632,10.539,19.409,20.946,30.031,30.425
					c0.065,1.011,0.463,2.007,1.295,2.8c4.406,4.408,9.007,8.765,14.523,11.759c5.789,3.239,12.242,5.243,18.893,5.44
					c7.088,0.02,14.34-1.236,20.7-4.459c3.568-1.865,6.712-4.424,9.838-6.935c3.733-3.053,7.296-6.401,9.966-10.446
					c0.135-0.204,0.251-0.414,0.357-0.626c4.819-3.779,9.396-7.857,13.689-12.261c9.095-8.715,17.71-17.911,26.394-27.031
					c1.968-2.021,3.836-4.134,5.681-6.266c11.229-8.841,21.031-19.374,31.385-29.207C379.381,298.886,393.429,286.277,403.128,270.4
					z M283.634,374.821c-1.685,1.776-3.386,3.538-5.129,5.257c-0.698,0.719-1.568,1.36-1.9,2.33
					c-2.051,1.908-4.086,3.833-6.092,5.79c-2.143,2.05-4.327,4.059-6.4,6.182c-0.092,0.107-0.188,0.212-0.285,0.317
					c-7.25,2.911-14.06,3.184-21.954,1.281c-4.202-1.324-2.683-0.701-6.136-2.468c-0.867-0.5-1.709-1.172-2.75-1.173
					c-0.283-0.055-0.558-0.069-0.829-0.064c0.119-0.643,0.121-1.307-0.042-1.94c-0.81-2.604-3.615-3.888-5.411-5.773
					c-3.438-3.013-6.968-5.921-10.365-8.981c-7.095-6.367-13.872-13.075-20.597-19.828c-1.986-2.026-4.005-4.021-5.952-6.084
					c-0.625-0.712-1.246-1.505-2.179-1.791c-8.547-9.105-17.055-18.245-25.646-27.309c-1.553-1.37-2.639-3.48-4.602-4.267
					c-0.803-0.352-1.587-0.443-2.316-0.346c-6.936-7.115-13.824-14.274-20.328-21.795c-1.147-1.095-2.427-1.448-3.615-1.315
					c-1.68-1.794-3.352-3.596-5.017-5.404c-7.397-7.838-15.259-15.614-19.197-22.113c-1.582-2.491-3.089-5.03-4.545-7.597
					c-0.036-0.418-0.066-0.84-0.078-1.274c-0.156-3.042-0.014-6.1,0.359-9.122c-0.049,0.385-0.099,0.77-0.148,1.154
					c0.105-1.92,0.966-3.988,0.502-5.879c1.011-3.134,1.825-4.735,4.727-9.124c0.877-1.748,9.517-10.141,14.051-14.252
					c2.812-2.711,5.633-5.414,8.474-8.096c0.877-0.134,1.727-0.521,2.421-1.247c4.136-4.615,8.15-9.345,12.516-13.748
					c1.665-1.69,3.337-3.376,5.089-4.978c0.722-0.606,1.489-1.24,1.737-2.184c0.294-0.669,0.394-1.321,0.37-1.942
					c0.325-0.284,0.65-0.57,0.976-0.853c13.527-11.907,26.364-24.546,39.051-37.335c2.437-2.45,4.81-4.964,7.149-7.508
					c0.582-0.555,0.957-1.24,1.153-1.968c0.918-0.846,1.838-1.689,2.751-2.539c7.682-6.848,14.718-14.363,22.201-21.418
					c6.115-5.711,10.253-8.623,16.953-12.66c4.594-0.173,12.3,0.018,13.525,0.583c4.358,1.099,3.095,0.637,7.212,2.777
					c4.166,2.566,3.523,2.254,7.629,5.993c1.195,1.003,2.225,2.442,3.475,3.447c0.011,0.044,0.008,0.087,0.021,0.131
					c0.517,1.995,2.44,3.108,3.782,4.53c2.613,2.441,5.254,4.852,7.842,7.32c9.919,9.221,19.363,18.915,28.518,28.891
					c3.916,4.138,7.793,8.316,11.814,12.353c1.733,1.662,3.464,3.415,5.499,4.694c0.495,0.27,1.028,0.426,1.568,0.501
					c3.218,3.364,6.507,6.661,9.746,10.007c8.906,9.326,18.045,18.431,26.921,27.786c0.013,1.464,0.701,2.926,2.263,3.808
					c0.926,0.464,1.91,1.053,2.928,1.733c0.281,0.304,0.563,0.606,0.844,0.909c0.404,0.7,0.982,1.296,1.694,1.696
					c0.535,0.32,1.096,0.491,1.656,0.559c5.79,4.794,11.778,11.366,14.631,15.701c3.482,4.895,2.871,6.865,3.921,10.866
					c0.149,0.447,0.366,0.84,0.632,1.181c0.095,3.663-0.13,5.402-1.552,9.674c-0.665,1.546-1.525,3-2.504,4.368
					c-0.305,0.535-0.489,1.148-0.558,1.773c-1.318,1.102-2.189,2.822-3.36,4.064c-1.107,1.386-2.225,2.765-3.382,4.11
					c-2.275,2.749-4.815,5.285-7.214,7.933c-0.038,0.037-0.081,0.065-0.117,0.104c-3.168,2.665-6.156,5.535-9.111,8.432
					c-8.23,7.921-16.324,15.98-24.558,23.898c-7.033,6.93-14.252,13.683-20.949,20.946c-2.405,2.846-5.363,5.428-7.065,8.77
					c-5.207,4.617-10.6,9.024-15.693,13.77C296.118,362.109,289.742,368.336,283.634,374.821z"/>
			</g>
		</g>
		<g>
			<g>
				<g>
					<g>
						<g>
							<g>
								<path style="fill:#003FDE;" d="M198.491,137.237c-0.081,0.005-0.151,0.023-0.235,0.023h-2.247
									c-26.701,27.942-55.272,53.715-80.413,82.813c21.388-18.341,40.447-39.177,60.602-58.829
									c6.699-6.426,13.044-13.194,19.535-19.825c1.358-1.41,2.762-2.796,4.138-4.204
									C199.411,137.221,198.951,137.233,198.491,137.237z"/>
								<path style="fill:#003FDE;" d="M193.454,137.261c-0.612,0-1.139-0.128-1.591-0.344c-0.515-0.053-1.027-0.116-1.539-0.188
									c-3.158,3.265-6.327,6.52-9.464,9.806c-12.323,12.955-24.885,25.699-36.531,39.274c13.154-11.203,25.427-23.379,37.2-36.018
									c3.997-4.206,8.047-8.36,12.081-12.53H193.454z"/>
								<path style="fill:#003FDE;" d="M211.13,122.275c-1.092,1.194-2.18,2.392-3.269,3.59c0.547,0.095,1.093,0.194,1.636,0.296
									c0.607-0.005,1.209-0.02,1.811-0.035c0.023-0.025,0.045-0.05,0.068-0.075c2.675-2.925,5.332-5.869,8.084-8.723
									c10.641-11.012,20.304-20.055,36.772-18.395C235.98,93.856,223.464,108.888,211.13,122.275z"/>
								<path style="fill:#003FDE;" d="M219.891,107.72c-6.091,5.56-11.842,11.476-17.529,17.445
									c1.128,0.075,2.27,0.203,3.415,0.369c5.886-6.136,11.894-12.153,18.172-17.891c7.254-6.848,14.387-12.11,24.716-12.912
									C237.101,93.897,227.982,100.195,219.891,107.72z"/>
							</g>
							<g>
								<path style="fill:#003FDE;" d="M160.184,323.205c-6.426-6.699-13.194-13.044-19.824-19.535
									c-1.134-1.091-2.258-2.206-3.388-3.316c0.001,0.163-0.003,0.329-0.024,0.507c-0.089,0.725-0.159,1.45-0.217,2.174
									c0.013,0.309,0.026,0.617,0.038,0.926c27.719,26.541,53.349,54.88,82.244,79.846
									C200.672,362.418,179.836,343.359,160.184,323.205z"/>
								<path style="fill:#003FDE;" d="M148.731,317.874c-3.979-3.782-7.914-7.612-11.858-11.43c0.055,1.32,0.11,2.64,0.165,3.96
									c2.807,2.719,5.611,5.44,8.438,8.138c12.955,12.323,25.699,24.885,39.274,36.531
									C173.546,341.919,161.37,329.646,148.731,317.874z"/>
								<path style="fill:#003FDE;" d="M125.346,288.348c-0.118-0.107-0.236-0.215-0.355-0.322
									c-2.925-2.676-5.869-5.332-8.723-8.084c-11.012-10.641-20.055-20.304-18.395-36.772
									c-5.077,20.253,9.955,32.768,23.342,45.103c1.339,1.225,2.683,2.445,4.026,3.666
									C125.266,290.742,125.303,289.546,125.346,288.348z"/>
								<path style="fill:#003FDE;" d="M125.21,294.333c-6.393-6.111-12.659-12.351-18.626-18.88
									c-6.848-7.254-12.11-14.387-12.912-24.716c-0.835,11.564,5.463,20.683,12.988,28.775
									c5.908,6.472,12.215,12.562,18.564,18.597C125.201,296.851,125.201,295.592,125.21,294.333z"/>
							</g>
						</g>
						<g>
							<g>
								<path style="fill:#003FDE;" d="M323.601,338.378c-6.699,6.426-13.044,13.194-19.535,19.825
									c-1.784,1.853-3.641,3.671-5.416,5.548c1.337-0.069,2.675-0.13,4.012-0.206c27.023-28.399,56.046-54.488,81.541-83.996
									C362.815,297.89,343.755,318.726,323.601,338.378z"/>
								<path style="fill:#003FDE;" d="M318.27,349.831c-4.309,4.533-8.68,9.007-13.025,13.505c-0.015,0.016-0.03,0.031-0.046,0.047
									c1.351-0.082,2.703-0.171,4.054-0.262c3.232-3.342,6.476-6.672,9.686-10.035c12.323-12.955,24.885-25.699,36.531-39.274
									C342.315,325.016,330.043,337.192,318.27,349.831z"/>
								<path style="fill:#003FDE;" d="M286.552,375.616c-2.05,2.246-4.103,4.489-6.213,6.678
									c-10.641,11.012-20.304,20.055-36.772,18.395c20.253,5.077,32.768-9.955,45.103-23.342c0.479-0.524,0.956-1.05,1.435-1.576
									C288.92,375.73,287.735,375.684,286.552,375.616z"/>
								<path style="fill:#003FDE;" d="M292.327,375.836c-5.346,5.529-10.799,10.952-16.477,16.143
									c-7.254,6.848-14.387,12.11-24.716,12.912c11.564,0.835,20.683-5.463,28.775-12.988c5.606-5.118,10.92-10.54,16.166-16.024
									C294.825,375.881,293.576,375.862,292.327,375.836z"/>
							</g>
							<g>
								<path style="fill:#003FDE;" d="M363.838,196.431c-28.029-26.762-53.877-55.406-83.052-80.615
									c18.341,21.388,39.177,40.448,58.829,60.602c6.426,6.699,13.194,13.044,19.824,19.535c1.479,1.424,2.941,2.887,4.424,4.322
									C363.852,198.993,363.842,197.712,363.838,196.431z"/>
								<path style="fill:#003FDE;" d="M363.844,190.269c-3.17-3.067-6.33-6.144-9.521-9.189
									c-12.955-12.323-25.699-24.885-39.274-36.531c11.203,13.154,23.379,25.427,36.018,37.2
									c4.281,4.069,8.509,8.192,12.754,12.298C363.822,192.787,363.838,191.528,363.844,190.269z"/>
								<path style="fill:#003FDE;" d="M378.584,211.349c-1.512-1.383-3.029-2.76-4.545-4.139c-0.036,1.189-0.081,2.377-0.132,3.566
									c0.3,0.273,0.6,0.546,0.901,0.819c2.925,2.676,5.869,5.332,8.723,8.084c11.012,10.641,20.055,20.304,18.395,36.772
									C407.002,236.2,391.97,223.684,378.584,211.349z"/>
								<path style="fill:#003FDE;" d="M393.139,220.111c-6.035-6.611-12.485-12.824-18.972-18.986
									c-0.014,1.234-0.032,2.467-0.06,3.7c6.56,6.258,12.99,12.65,19.108,19.345c6.848,7.254,12.11,14.387,12.912,24.716
									C406.961,237.321,400.664,228.202,393.139,220.111z"/>
							</g>
						</g>
					</g>
					<g>
						<g>
							<g>
								<path style="fill:#007EDE;" d="M133.946,206.561c-0.054,0.06-0.091,0.124-0.15,0.183l-1.589,1.589
									c0.877,38.638-1.1,77.065,1.697,115.418c2.154-28.092,0.898-56.303,1.253-84.45c0.193-9.28-0.106-18.553-0.205-27.831
									c-0.037-1.957-0.024-3.93-0.047-5.899C134.585,205.899,134.269,206.232,133.946,206.561z"/>
								<path style="fill:#007EDE;" d="M130.401,210.139c-0.432,0.432-0.896,0.715-1.368,0.882
									c-0.401,0.327-0.809,0.645-1.221,0.955c0.075,4.542,0.136,9.084,0.242,13.626c0.446,17.874,0.575,35.768,1.939,53.602
									c1.38-17.223,1.448-34.511,0.835-51.773c-0.148-5.8-0.221-11.602-0.318-17.403L130.401,210.139z"/>
								<path style="fill:#007EDE;" d="M132.303,187.044c0.072,1.617,0.15,3.233,0.227,4.85c0.454-0.319,0.91-0.635,1.366-0.948
									c0.425-0.433,0.84-0.869,1.256-1.305c-0.002-0.034-0.003-0.067-0.005-0.101c-0.177-3.96-0.38-7.92-0.452-11.884
									c-0.262-15.311,0.176-28.538,12.995-39.009C129.78,149.377,131.56,168.856,132.303,187.044z"/>
								<path style="fill:#007EDE;" d="M128.207,170.557c-0.375,8.239-0.259,16.488-0.06,24.73c0.851-0.745,1.749-1.461,2.676-2.154
									c-0.177-8.501-0.183-17.003,0.199-25.5c0.287-9.972,1.61-18.736,8.347-26.607
									C130.602,148.613,128.607,159.514,128.207,170.557z"/>
							</g>
							<g>
								<path style="fill:#007EDE;" d="M238.358,365.146c-9.28-0.193-18.553,0.106-27.831,0.205c-1.573,0.03-3.157,0.037-4.74,0.051
									c0.116,0.115,0.231,0.235,0.341,0.375c0.451,0.576,0.913,1.138,1.384,1.691c0.227,0.209,0.454,0.418,0.682,0.627
									c38.368-0.833,76.529,1.082,114.615-1.696C294.716,364.245,266.505,365.501,238.358,365.146z"/>
								<path style="fill:#007EDE;" d="M226.49,369.475c-5.488,0.139-10.978,0.214-16.467,0.302
									c0.972,0.895,1.945,1.789,2.917,2.684c3.907-0.062,7.814-0.12,11.721-0.212c17.874-0.447,35.768-0.576,53.602-1.939
									C261.04,368.931,243.752,368.862,226.49,369.475z"/>
								<path style="fill:#007EDE;" d="M189.077,365.134c-0.16,0.007-0.319,0.015-0.479,0.023c-3.96,0.177-7.92,0.38-11.884,0.452
									c-15.311,0.263-28.538-0.176-39.009-12.995c10.731,17.911,30.21,16.131,48.397,15.387c1.813-0.081,3.626-0.168,5.439-0.255
									C190.713,366.883,189.893,366.01,189.077,365.134z"/>
								<path style="fill:#007EDE;" d="M193.213,369.461c-8.841,0.199-17.685,0.217-26.521-0.18
									c-9.972-0.287-18.736-1.61-26.607-8.347c7.587,8.768,18.488,10.763,29.531,11.163c8.754,0.399,17.52,0.245,26.277,0.023
									C194.986,371.248,194.096,370.358,193.213,369.461z"/>
							</g>
						</g>
						<g>
							<g>
								<path style="fill:#007EDE;" d="M364.64,260.322c-0.193,9.28,0.107,18.553,0.205,27.831c0.049,2.572,0.022,5.17,0.093,7.753
									c0.897-0.994,1.799-1.983,2.691-2.982c-0.973-39.189,1.101-78.159-1.736-117.052
									C363.739,203.964,364.995,232.175,364.64,260.322z"/>
								<path style="fill:#007EDE;" d="M368.97,272.191c0.159,6.252,0.231,12.506,0.339,18.76c0,0.022,0.001,0.044,0.001,0.066
									c0.898-1.014,1.79-2.032,2.682-3.051c-0.078-4.648-0.139-9.297-0.247-13.945c-0.447-17.874-0.576-35.768-1.939-53.602
									C368.425,237.641,368.357,254.928,368.97,272.191z"/>
								<path style="fill:#007EDE;" d="M364.774,312.851c0.138,3.037,0.273,6.075,0.328,9.115
									c0.263,15.311-0.176,28.538-12.995,39.009c17.911-10.731,16.131-30.21,15.388-48.397c-0.032-0.71-0.066-1.419-0.1-2.129
									C366.529,311.258,365.659,312.063,364.774,312.851z"/>
								<path style="fill:#007EDE;" d="M369.013,308.923c0.129,7.69,0.108,15.38-0.237,23.066
									c-0.287,9.972-1.61,18.736-8.347,26.607c8.768-7.587,10.762-18.488,11.163-29.531c0.345-7.583,0.269-15.174,0.1-22.762
									C370.811,307.189,369.915,308.058,369.013,308.923z"/>
							</g>
							<g>
								<path style="fill:#007EDE;" d="M292.721,131.499c-38.743,0.896-77.275-1.081-115.731,1.724
									c28.092,2.154,56.303,0.898,84.45,1.253c9.28,0.193,18.553-0.106,27.831-0.205c2.053-0.039,4.121-0.038,6.185-0.072
									C294.543,133.3,293.63,132.402,292.721,131.499z"/>
								<path style="fill:#007EDE;" d="M288.368,127.137c-4.41,0.072-8.82,0.132-13.23,0.235
									c-17.874,0.446-35.768,0.576-53.602,1.939c17.223,1.38,34.511,1.448,51.773,0.835c5.904-0.15,11.81-0.224,17.715-0.322
									C290.133,128.934,289.254,128.031,288.368,127.137z"/>
								<path style="fill:#007EDE;" d="M313.696,131.621c-2.047,0.091-4.094,0.19-6.14,0.287c0.815,0.866,1.624,1.738,2.428,2.615
									c0.405-0.019,0.811-0.038,1.216-0.057c3.96-0.177,7.92-0.38,11.884-0.452c15.31-0.262,28.538,0.176,39.009,12.995
									C351.363,129.098,331.884,130.877,313.696,131.621z"/>
								<path style="fill:#007EDE;" d="M330.183,127.524c-8.942-0.407-17.896-0.239-26.841-0.01
									c0.863,0.882,1.721,1.767,2.574,2.659c9.064-0.214,18.131-0.24,27.19,0.167c9.972,0.287,18.736,1.61,26.607,8.347
									C352.127,129.919,341.226,127.925,330.183,127.524z"/>
							</g>
						</g>
					</g>
				</g>
				<g>
					<g>
						<g>
							<path style="fill:#00288C;" d="M303.01,306.613c-8.493,7.114-18.207,12.163-28.44,15.349
								c4.887-1.872,11.008-4.928,14.109-7.092c-4.529,1.98-9.194,3.641-13.955,4.963c6.613-2.618,12.77-6.268,18.083-10.907
								c-8.435,5.444-17.571,8.506-27.547,10.518c-14.912,3.07-32.797,1.719-46.555-4.999c-6.895-3.192-13.375-7.297-19.049-12.132
								c-0.4-0.32-1.566-1.392-0.68-0.456c4.268,4.877,9.213,9.126,14.642,12.663c4.007,2.677,8.341,4.802,12.87,6.416
								c-5.377-1.455-10.707-3.637-16.146-6.777c6.446,5.441,13.993,9.049,21.991,11.032c-1.063-0.15-2.123-0.31-3.177-0.493
								c-7.916-1.244-15.041-4.128-21.996-7.762c-0.244-0.1-0.483-0.277-0.626-0.322c0.141,0.101,0.282,0.203,0.424,0.304
								c1.179,0.846,2.38,1.662,3.601,2.447c4.898,3.181,10.205,5.795,15.833,7.396c7.619,2.171,15.543,3.136,23.452,2.985
								c-9.238,0.598-18.395,0.124-27.275-2.051c21,8.825,48.503,6.461,67.624-5.955c3.225-2.219,6.348-4.826,9.091-7.524
								c-0.258,0.187-0.516,0.374-0.776,0.558c-4.075,2.846-8.34,5.472-12.927,7.412c-4.641,2.12-10.921,3.845-16.875,5.065
								c1.797-0.445,3.581-0.941,5.344-1.501C285.168,322.126,295.295,315.387,303.01,306.613z"/>
							<path style="fill:#00288C;" d="M330.42,227.728c1.4,9.2,1.634,18.136,0.923,26.558c0.089-4.746-0.225-9.601-0.944-14.547
								c-0.598-4.504-1.617-9.494-3.306-13.444c1.164,4.592,1.467,9.262,1.591,14.025c-1.118-7.286-3.367-14.38-7.077-20.784
								c2.984,7.862,4.255,15.421,4.545,23.398c-0.139-0.938-0.284-1.875-0.457-2.805c-0.829-4.13-2.012-8.338-3.553-12.183
								c0.055,0.251,0.11,0.502,0.164,0.754c1.044,4.931,1.522,8.813,1.829,13.891c0.151,3.96,0.087,7.859-0.196,11.697
								c0.001-9.102-1.927-18.19-5.893-26.394c4.001,13.504,3.709,27.18,0.664,40.171c-1.956,8.759-4.385,15.455-9.05,22.875
								c-2.63,4.314-5.401,8.019-8.642,11.746c-0.418,0.483-0.84,0.963-1.264,1.44c0.034-0.028,0.067-0.057,0.101-0.085
								c3.619-3.027,7.014-6.336,9.986-10.006c2.697-3.195,5.01-6.681,6.945-10.365c-2.457,5.639-5.54,11.105-9.302,16.388
								c3.575-3.493,6.734-7.41,9.43-11.626c-0.573,1.152-1.163,2.299-1.79,3.438c-2.636,4.788-5.549,9.519-8.893,13.513
								c-0.572,0.694-1.155,1.377-1.745,2.055c0.135-0.117,0.27-0.234,0.404-0.351c4.05-3.461,7.522-7.527,10.616-11.852
								c0.4-0.542,0.783-1.096,1.167-1.649c-2.306,4.213-4.945,8.32-7.978,12.294c7.611-7.307,13.237-15.46,16.982-24.272
								c-1.091,3.281-2.326,6.458-3.728,9.427c-0.841,1.947-2.264,4.483-3.174,5.898c1.158-1.251,2.207-2.599,3.157-4.014
								c7.241-10.782,11.601-23.559,12.619-36.499C334.895,246.749,333.625,236.877,330.42,227.728z"/>
							<path style="fill:#00288C;" d="M304.899,200.257c5.475,6.028,9.907,11.977,13.841,19.382
								c0.183,0.271,0.275,0.568,0.394,0.721c-0.126-0.343-0.253-0.686-0.382-1.027c-2.241-6.136-5.331-11.932-9.111-17.257
								c-2.865-4.086-6.068-7.966-9.715-11.379c5.014,3.946,11.577,10.328,15.717,15.996c0.231,0.308,0.458,0.619,0.686,0.929
								c-0.054-0.1-0.107-0.2-0.161-0.3c-3.209-5.902-7.259-11.356-11.966-16.148c-3.891-3.945-8.233-7.487-12.908-10.506
								c5.069,2.689,10.203,5.484,14.489,9.236c-2.614-3.298-5.9-5.982-9.25-8.498c-4.646-3.464-9.625-6.524-14.907-8.919
								c-11.331-4.896-23.991-6.431-36.247-5.571c-2.928,0.191-7.717,1.178-9.495,1.916c5.612-0.896,11.317-0.571,16.936,0.085
								c1.597,0.174,3.268,0.408,4.984,0.689c-5.082-0.393-10.195-0.289-15.248,0.487c-6.066,1.15-12.197,2.776-17.751,5.499
								c4.966-1.636,10.694-2.289,15.206-2.922c8.204-0.799,16.012-0.067,23.001,1.151c0.672,0.101,1.332,0.217,1.991,0.334
								c-8.337-1.272-16.916-0.926-25.088,1.178c10.145-0.906,20.369,0.232,29.986,3.121c-11.281-2.875-23.309-2.875-34.709,0.387
								c24.136-2.74,47.784,4.828,65.342,20.192c4.928,4.373,8.88,9.216,12.265,14.755c-2.226-5.199-5.216-10.057-8.871-14.373
								c-0.806-0.945-1.646-1.856-2.502-2.747C302.625,197.825,303.787,199.019,304.899,200.257z"/>
							<path style="fill:#00288C;" d="M207.263,189.788c0.35-0.243,0.697-0.496,1.048-0.73c5.784-3.874,11.917-7.185,18.371-9.282
								c0.606-0.184,1.217-0.354,1.828-0.523c-0.088,0.011-0.176,0.023-0.264,0.034c-5.52,0.7-10.832,2.583-15.896,4.836
								c-7.485,3.399-14.437,8.231-20.243,14.147c3.178-3.578,6.648-6.79,10.343-9.548c5.204-3.878,10.811-7.246,16.797-9.772
								c0.287-0.131,0.586-0.246,0.843-0.363c-0.032,0.008-0.064,0.017-0.096,0.025c-4.741,1.181-9.333,2.916-13.687,5.131
								c-2.654,1.314-5.208,2.834-7.648,4.52c2.1-1.846,4.169-3.544,6.078-4.976c4.687-3.415,9.752-6.568,15.087-8.556
								c0.652-0.28,1.57-0.565,2.035-0.768c-0.345,0.071-0.689,0.145-1.032,0.222c-4.883,0.978-9.486,2.903-13.883,5.201
								c-11.312,6.234-21.434,15.084-28.456,25.974c-7.157,11.428-10.775,25.053-10.855,38.5
								c2.008-11.828,5.591-22.256,11.299-32.212c-0.307,0.691-0.606,1.386-0.883,2.093c-3.177,7.915-5.91,16.294-5.394,24.928
								c0.727-6.701,2.958-12.467,5.535-18.106c-0.38,1.135-0.725,2.285-1.028,3.449c-1.962,8.061-3.417,16.628-1.812,24.869
								c-0.278-8.711,2.223-17.1,5.224-25.695c0.527-1.483,1.144-2.961,1.823-4.428c-2.829,7.188-4.291,15.045-4.199,23.261
								c3.357-22.274,15.852-41.001,34.127-52.484c4.86-3.093,10.062-5.5,15.367-7.435c-2.519,0.229-10.335,2.602-14.346,4.544
								C211.235,187.594,209.207,188.645,207.263,189.788z"/>
							<path style="fill:#00288C;" d="M194.884,299.316c-1.452-1.781-2.972-3.882-4.461-6.116c2.136,2.538,4.459,4.913,6.972,7.056
								c-5.505-6.909-9.707-14.781-13.347-22.803c-2.776-6.058-4.868-15.849-5.362-23.471c-0.178-1.764-0.201-4.136-0.27-5.578
								c-0.248,1.493-0.453,2.994-0.597,4.501c-0.319,3.76-0.377,7.568-0.063,11.335c-0.873-3.991-1.522-8.035-2.045-12.082
								c-0.62,9.443-0.014,19.25,3.808,28.021c3.701,7.856,9.133,14.869,15.581,20.666c1.15,1.025,2.446,2.101,3.643,2.946
								C197.375,302.373,196.106,300.862,194.884,299.316z"/>
							<path style="fill:#00288C;" d="M193.303,305.081c3.682,3.283,7.73,6.154,12.357,7.832
								c-6.152-3.423-10.893-9.075-15.39-14.585c-7.744-9.782-13.89-22.349-16.386-35.713c-0.879-5.004-1.197-11.436-0.598-17.26
								c-0.009-0.263,0.143-1.025,0.024-0.591c-1.357,5.174-1.928,10.544-1.802,15.888c0.081,1.782,0.259,3.559,0.498,5.328
								c-0.38-1.59-0.719-3.198-1.006-4.832c-0.758-4.769-1.227-10.824-1.141-16.335c-0.8,4.976-1.072,10.039-0.944,15.075
								c0.056,1.594,0.175,3.169,0.349,4.726c-1.126-4.529-1.799-9.239-1.898-14.254c-1.815,12.664,0.959,24.551,6.691,35.857
								c4.918,9.523,11.139,18.727,19.66,25.378c3.272,2.518,7.076,4.555,10.7,6.324c-0.32-0.221-0.64-0.443-0.959-0.666
								c-3.813-2.671-7.301-5.294-10.505-8.773c-0.938-1.005-1.827-2.051-2.695-3.116c4.591,4.353,9.755,8.192,15.341,11.425
								C201.18,313.114,197.06,309.214,193.303,305.081z"/>
						</g>
						<g>
							<path style="fill:#003FDE;" d="M229.699,309.763c5.263,1.517,10.736,2.273,16.228,2.066c4.25-0.295,8.681-0.78,12.543-2.685
								c-3.47,1.088-7.174,1.005-10.846,0.903c-5.38-0.277-11.003-1.609-16.105-3.475c5.582,1.244,11.329,1.542,16.648,0.511
								c-6.375,0.285-12.529-1.573-18.599-3.854c-14.03-5.64-25.713-17.089-32.544-31.971c-3.439-7.1-4.939-17.342-4.323-26.577
								c0.04-0.628,0.089-1.257,0.144-1.884c-0.023,0.092-0.045,0.183-0.068,0.275c-1.582,6.311-2.009,12.887-1.384,19.359
								c0.288,3.277,1.058,6.477,2.14,9.577c-3.512-7.393-5.042-15.249-4.794-23.984c-0.004-0.666,0.043-1.412,0.049-2.009
								c-0.036,0.191-0.072,0.382-0.106,0.573c-1.339,6.945-1.507,14.144,0.12,21.056c0.959,3.681,2.298,7.272,3.944,10.724
								c-2.568-4.429-4.882-9.444-5.988-14.065c2.117,25.362,23.491,45.372,47.965,49.777c5.472,1.075,11.083,1.076,16.578,0.16
								c-0.369-0.008-0.739-0.018-1.108-0.03C243.139,314.193,236.376,312.448,229.699,309.763z"/>
							<path style="fill:#003FDE;" d="M306.382,281.298c0.595-1.134,1.166-2.278,1.7-3.436c2.079-4.587,3.136-9.553,3.77-14.528
								c0.057-0.586,0.406-2.6,0.022-1.138c-1.864,6.129-3.786,11.29-7.362,16.638c-0.417,0.632-0.844,1.257-1.275,1.88
								c2.097-4.312,3.586-8.907,4.489-13.618c0.568-3.136,1.091-6.356,0.807-9.547c-0.456,4.274-2.867,10.221-4.08,13.138
								c-0.676,1.658-1.478,3.336-2.376,5.005c0.449-1.103,0.86-2.219,1.227-3.343c1.104-3.449,2.07-7.092,2.375-10.658
								c-0.201,0.742-0.439,1.474-0.706,2.195c-1.748,4.682-3.953,9.253-6.754,13.697c-3.934,6.228-9.572,12.451-15.948,17.88
								c-5.229,4.543-12.302,8.323-19.776,10.146c5.977-0.108,11.646-1.685,16.79-4.338c-0.984,0.672-1.993,1.329-3.063,1.959
								c-4.482,2.731-8.64,4.156-13.837,5.68c-0.341,0.099-0.705,0.182-1.017,0.27c0.066-0.005,0.132-0.009,0.198-0.014
								c4.419-0.346,8.837-1.132,13.036-2.57c0.435-0.16,0.861-0.34,1.29-0.513c-5.147,2.754-10.729,4.839-16.765,6.068
								c7.445,0.091,14.864-1.906,21.629-5.039c-0.338,0.221-0.677,0.445-1.012,0.655c-4.558,3.019-8.966,4.73-14.232,6.179
								c4.712-0.403,9.438-1.276,13.756-3.268c10.596-4.726,20.197-12.228,26.59-21.978c4.418-7.325,7.561-15.688,8.247-24.251
								C312.388,270.355,309.683,275.948,306.382,281.298z"/>
							<path style="fill:#003FDE;" d="M302.855,207.812c-5.421-6.472-11.712-12.393-19.33-16.178
								c-4.003-1.975-8.376-3.235-12.694-4.166c0.287,0.117,0.573,0.237,0.858,0.358c4.533,1.846,8.567,4.016,12.215,6.631
								c-3.892-2.257-8.014-4.066-12.432-4.95c5.034,2.03,8.954,4.846,12.777,8.003c-3.834-2.156-7.915-3.835-12.035-5.36
								c0.201,0.121,0.402,0.242,0.604,0.363c6.394,3.889,10.875,6.693,15.653,11.553c2.016,2.113,3.915,4.313,5.701,6.589
								c-3.366-3.284-7.143-6.157-11.199-8.533c-2.364-1.345-4.743-2.81-7.408-3.462c4.201,2.28,7.558,5.579,11.258,9.048
								c5.367,5.373,7.344,7.99,11.404,14.631c3.797,6.397,4.993,9.224,6.853,16.693c1.301,5.458,1.785,10.063,1.822,15.826
								c0.012,0.217-0.031,0.873,0.047,0.372c0.773-4.03,1.176-8.146,1.04-12.251c-0.044-2.661-0.329-5.288-0.819-7.865
								c1.347,4.356,2.309,8.902,2.808,13.652c0.794-7.287,0.021-14.505-2.086-21.265c1.581,3.563,2.742,7.171,3.748,11.715
								c1.509,6.533,1.962,12.428,1.677,19.498c-0.069,1.24,0.053,0.267,0.191-0.356c1.017-5.036,1.595-10.181,1.289-15.321
								c-0.109-2.988-0.463-5.971-1.048-8.911c1.354,3.747,2.353,7.738,3.032,12.325
								C317.765,232.328,311.893,218.458,302.855,207.812z"/>
							<path style="fill:#003FDE;" d="M268.847,195.413c-4.508-2.511-9.577-3.844-14.697-4.317
								c-6.665-0.677-13.136-0.237-19.22,1.202c2.951-0.967,6.053-1.734,9.423-2.29c5.582-0.777,15.375-0.039,22.179,1.675
								c0.308,0.051,0.605,0.143,0.865,0.186c-0.183-0.071-0.367-0.141-0.551-0.21c-6.439-2.546-13.235-4.237-20.168-4.555
								c-1.55-0.015-3.102,0.069-4.65,0.205c6.206-1.254,12.698-1.684,19.012-0.971c-10.71-3.06-23.146-2.396-33.927,1.41
								c3.073-1.582,6.192-2.719,9.833-3.62c0.412-0.106,0.852-0.197,1.238-0.291c-0.078,0.004-0.157,0.007-0.235,0.011
								c-4.848,0.242-9.709,1.161-14.142,3.187c-10.211,4.537-19.622,11.343-26.81,19.922c-6.949,8.998-10.401,20.524-10.713,31.807
								c0.487-2.124,1.042-4.179,1.666-6.185c-0.523,3.371-0.707,6.806-0.717,10.203c0.077-0.477,0.156-0.953,0.235-1.43
								c1.287-8.119,3.53-14.908,8.029-21.604c0.263-0.41,0.537-0.805,0.809-1.205c-1.223,2.523-2.263,5.14-3.112,7.818
								c-1.421,4.637-2.743,9.404-2.91,14.275c2.009-8.404,5.548-15.737,10.287-23.08c0.707-1.111,1.632-2.337,2.677-3.597
								c-3.145,4.582-5.663,9.755-7.416,15.443c3.541-6.055,6.62-11.324,11.434-15.998c11.844-11.833,27.235-18.804,43.494-19.894
								c5.963-0.388,11.418-0.181,17,1.632C268.264,195.245,269.867,195.961,268.847,195.413z"/>
						</g>
						<g>
							<path style="fill:#007EDE;" d="M255.798,299.209c-6.137-0.508-12.159-1.224-18.144-3.473
								c-0.57-0.248-1.132-0.501-1.687-0.758c7.063,2.138,14.809,2.422,22.774,0.374c-21.032,1.301-37.137-10.384-47.02-25.197
								c-4.258-6.6-6.705-12.971-7.994-20.883c-0.082-0.242-0.046-0.478-0.106-0.591c-0.014,1.284,0.005,2.568,0.063,3.851
								c0.225,4.802,1.11,9.592,2.925,14.056c0.779,2.018,1.672,3.963,2.669,5.827c-2.905-4.491-5.745-9.974-6.952-15
								c0.445,7.29,3.044,14.441,6.896,20.671c-0.097-0.113-0.196-0.22-0.293-0.334c-3.141-3.544-6.386-9.748-8.27-14.977
								c-0.215-0.43-0.462-1.367-0.565-1.456c0.642,3.821,1.481,7.638,2.889,11.256c7.763,18.421,26.109,29.611,45.961,29.05
								c-3.502-0.729-6.777-1.632-9.878-2.699c0.811,0.166,1.627,0.314,2.448,0.431
								C245.732,299.938,253.237,299.803,255.798,299.209z"/>
							<path style="fill:#007EDE;" d="M300.371,249.372c-0.066,0.585-0.133,1.17-0.202,1.755c-0.328,3.548-1.109,7.529-2.165,11.156
								c0.903-4.612,1.064-9.367,0.364-14.054c-0.393,4.889-1.314,9.377-2.787,13.657c0.34-1.536,0.589-3.096,0.723-4.678
								c0.428-4.295,0.415-8.643-0.325-12.904c-0.012,0.288-0.024,0.576-0.039,0.864c-0.283,5.678-1.364,11.29-3.308,16.862
								c-4.045,11.247-16.681,27.145-28.963,30.94c6.097-0.59,11.758-3.482,16.562-7.321c-1.983,1.891-4.109,3.624-6.378,5.098
								c-4.543,3.071-9.001,4.831-14.049,6.587c-0.255,0.121-1.016,0.302-0.517,0.229c4.32-0.654,8.679-1.427,12.721-3.144
								c1.891-0.743,3.703-1.639,5.436-2.656c-0.042,0.032-0.08,0.065-0.122,0.097c-2.492,2.03-7.587,5.621-11.768,6.991
								c8.112-1.194,15.42-5.761,21.564-11.007c7.36-6.962,12.034-16.74,13.286-26.76
								C300.874,257.195,300.699,253.265,300.371,249.372z"/>
							<path style="fill:#007EDE;" d="M297.473,229.569c-2.921-7.917-8.041-15.052-14.481-20.489
								c-4.538-3.722-9.868-6.349-15.461-8.075c-4.129-1.258-8.405-2.04-12.72-2.223c-1.897-0.039-3.956-0.173-5.71,0.652
								c1.725-0.413,3.237-0.002,4.887,0.275c1.426,0.312,2.841,0.674,4.243,1.077c-4.135-0.573-11.2,0.12-13.587,0.932
								c6.134-0.052,11.393,0.33,17.143,2.521c2.436,0.869,4.777,1.936,7.039,3.145c-6.621-2.743-14.165-4.06-21.152-2.083
								c12.464-0.668,25.495,7.274,32.794,14.344c6.446,6.189,11.084,13.752,14.24,22.562c0.112,0.22,0.275,0.951,0.226,0.544
								c-0.645-4.999-2.153-9.869-4.285-14.43c-0.149-0.32-0.312-0.635-0.469-0.952c2.629,4.058,4.858,8.45,6.603,13.11
								c-0.918-5.814-2.8-11.536-5.586-16.751c1.035,1.428,2.009,2.899,2.912,4.414c2.766,4.7,4.318,9.266,5.386,14.899
								c0.063,0.288,0.104,0.587,0.16,0.847c0-0.062,0-0.123,0.001-0.185C299.706,238.913,299.075,234.096,297.473,229.569z"/>
							<path style="fill:#007EDE;" d="M244.668,203.204c-0.062-0.002-0.125-0.003-0.187-0.005
								c-3.696-0.097-7.395,0.417-10.974,1.324c-4.221,0.958-8.133,2.689-11.648,4.999c1.204-0.994,2.418-1.908,3.619-2.699
								c5.844-4.093,11.731-6.227,18.92-7.166c-5.689-0.249-11.48,0.438-16.704,2.803c-19.706,8.249-33.04,30.96-27.601,52.127
								c-0.305-11.03,2.24-19.415,7.241-27.869c-2.543,5.623-3.85,11.816-3.614,18.03c0.712-3.603,1.747-6.996,3.074-10.217
								c-0.603,2.419-0.965,4.925-1.038,7.5c-0.079,1.137-0.175,3.354-0.076,3.897c0.669-3.468,1.63-6.876,2.786-10.211
								c1.828-5.394,5.78-10.855,10.463-15.717c6.542-6.776,13.172-11.256,22.916-14.487c-4.4,0.335-8.662,1.438-12.626,3.163
								c4.145-2.275,8.854-4.074,13.775-5.158C243.551,203.406,244.109,203.301,244.668,203.204z"/>
						</g>
					</g>
					<g>
						<path style="fill:#007EDE;" d="M225.428,341.18c-7.817-2.138-13.056-4.222-19.367-7.28
							c-9.855-5.061-17.498-10.756-25.183-18.345c-6.008-6.319-10.466-12.857-14.846-20.947c-2.318-4.358-4.713-9.035-6.248-13.089
							c-1.6-4.234-2.736-8.627-3.932-12.988c-0.133-0.343-0.208-0.94-0.278-1.02c0.183,1.43,0.386,2.857,0.606,4.281
							c0.928,6.907,2.773,13.656,5.72,19.981c6.33,14.785,16.907,27.61,30.127,36.754c9.235,6.763,19.796,11.854,31.099,13.932
							c5.262,0.957,10.683,1.733,16.023,1.052C234.493,343.456,229.979,342.36,225.428,341.18z"/>
						<path style="fill:#007EDE;" d="M175.236,319.487c-9.268-10.876-17.057-24.382-22.407-37.952
							c2.826,15.241,10.93,29.269,22.79,39.26c0.905,0.793,1.843,1.602,2.758,2.355
							C177.319,321.938,176.275,320.714,175.236,319.487z"/>
						<path style="fill:#007EDE;" d="M154.677,299.809c-1.562-2.839-3.214-5.643-4.465-8.638c1.258,6.669,5.039,12.839,9.556,17.702
							C157.939,305.926,156.312,302.866,154.677,299.809z"/>
						<path style="fill:#007EDE;" d="M239.038,351.17c-10.957-1.634-21.905-3.99-32.221-8.098
							c-5.808-2.486-14.483-6.816-20.471-11.385c6.061,6.139,13.477,11.022,21.36,14.496c10.411,4.269,21.852,5.505,33.026,5.65
							c0.97,0.008,2.085,0.008,2.963-0.013C242.151,351.622,240.615,351.405,239.038,351.17z"/>
						<path style="fill:#007EDE;" d="M220.681,354.142c-8.012-2.275-16.002-5.209-23.369-8.536
							c6.91,5.306,15.372,8.303,24.032,8.959c0.405,0.036,0.863,0.076,1.231,0.098C221.943,354.491,221.312,354.317,220.681,354.142
							z"/>
						<path style="fill:#007EDE;" d="M346.384,252.128c-1.634,11.185-4.264,22.268-8.634,32.716
							c-9.012,21.493-27.112,41.089-48.799,52.201c-5.772,2.922-9.547,4.268-16.402,6.416c-5.885,1.831-11.877,3.375-18.027,3.97
							c9.153,0.358,18.26-1.535,26.958-4.258c7.692-2.606,14.775-6.762,21.384-11.434c9.438-6.683,17.872-14.728,24.751-24.037
							c6.101-8.181,11.348-17.141,14.443-26.906C344.99,272.562,346.808,257.667,346.384,252.128z"/>
						<path style="fill:#007EDE;" d="M349.766,271.921c-3.992,13.617-9.252,25.548-17.3,37.515
							c-4.561,6.563-8.659,12.484-14.402,18.08c4.2-2.943,7.765-6.683,11.197-10.467c4.475-5.01,8.5-10.448,11.711-16.357
							c5.202-9.393,8.115-19.829,9.939-30.36c0.31-1.695,0.581-3.431,0.871-5.109C351.096,267.452,350.456,269.694,349.766,271.921z
							"/>
						<path style="fill:#007EDE;" d="M356.542,282.457c-3.806,8.94-8.414,17.559-13.616,25.763
							c7.14-7.01,11.811-16.243,13.803-26.011c0.036-0.158,0.057-0.256,0.081-0.384C356.712,282.055,356.63,282.253,356.542,282.457
							z"/>
						<path style="fill:#007EDE;" d="M294.35,343.61c-6.128,2.828-10.937,4.996-17.6,7.102c-4.416,1.271-8.946,2.112-13.46,2.952
							c-2.093,0.363-4.268,0.69-6.331,0.986c1.82-0.001,3.64-0.037,5.458-0.115c5.008-0.271,10.037-0.715,14.95-1.753
							c5.5-1.311,10.844-3.295,15.918-5.786c8.18-4.102,16.111-9.223,22.115-16.213C309.248,336.112,301.749,340.033,294.35,343.61z
							"/>
						<path style="fill:#007EDE;" d="M300.659,348.654c-7.537,3.408-13.136,6.275-20.483,8.629
							c7.958-0.592,15.344-4.342,21.664-9.041c0.212-0.163,0.454-0.349,0.633-0.498
							C301.873,348.056,301.268,348.358,300.659,348.654z"/>
						<path style="fill:#007EDE;" d="M341.264,213.088c-10.602-30.6-40.22-57.717-72.661-62.435
							c6.348,1.679,11.622,4.196,17.45,7.044c6.392,3.217,12.647,6.754,18.398,11.03c14.161,10.396,25.543,24.338,33.099,41.422
							c3.439,7.526,6.629,15.791,8.752,24.527C346.186,230.355,343.674,219.348,341.264,213.088z"/>
						<path style="fill:#007EDE;" d="M353.499,215.662c-2.077-6.139-5.409-11.782-9.04-17.121c-0.89-1.279-1.974-2.715-2.861-3.832
							c0.926,1.65,1.847,3.304,2.693,4.997c7.747,14.792,11.705,31.659,10.741,49.101
							C357.571,237.909,357.028,226.282,353.499,215.662z"/>
						<path style="fill:#007EDE;" d="M280.319,145.987c-1.473-0.416-3.124-0.865-4.514-1.201c1.878,0.754,3.746,1.534,5.428,2.249
							c9.14,3.668,17.813,8.4,25.851,14.091c7.48,5.179,15.195,11.574,21.832,19.869
							C318.617,163.049,300.125,151.018,280.319,145.987z"/>
						<path style="fill:#007EDE;" d="M288.743,143.105c0.253,0.107,0.532,0.226,0.764,0.324c3.529,1.549,6.745,2.777,10.455,4.514
							C296.773,145.292,292.777,143.861,288.743,143.105z"/>
						<path style="fill:#007EDE;" d="M247.174,147.307c-8.921-0.174-17.83,1.157-26.473,3.306
							c-16.323,4.211-30.87,13.545-42.983,25.105c-15.439,14.46-28.24,34.59-26.551,56.491
							c1.596-20.971,13.525-40.594,28.467-54.547c11.05-10.523,23.612-18.804,37.916-23.314c11.169-3.463,22.46-6.105,33.932-6.701
							c0.345-0.066,0.818,0.001,0.937-0.054C250.675,147.45,248.926,147.345,247.174,147.307z"/>
						<path style="fill:#007EDE;" d="M186.557,161.27c-1.25,1.095-2.753,2.426-3.818,3.437c1.596-1.097,3.199-2.185,4.807-3.264
							c8.922-5.926,17.531-9.999,27.117-13.444c7.966-2.93,16.303-5.136,24.658-6.028
							C220.057,141.041,200.927,148.587,186.557,161.27z"/>
						<path style="fill:#007EDE;" d="M203.61,145.884c2.801-0.863,4.854-1.888,7.346-2.774
							C208.371,143.3,205.607,144.667,203.61,145.884z"/>
						<path style="fill:#007EDE;" d="M204.713,162.244c-9.816,4.638-18.375,11.776-25.239,20.148
							c-1.118,1.371-2.339,2.934-3.315,4.265c1.5-1.52,3.021-3.02,4.572-4.487c13.99-13.078,31.832-22.731,50.48-26.525
							C222.06,155.875,213.038,158.543,204.713,162.244z"/>
						<path style="fill:#007EDE;" d="M156.284,233.324c-0.02,1.083-0.022,2.218,0.004,3.271c0.209-1.411,0.437-2.819,0.69-4.223
							c1.037-6.03,2.867-11.887,4.782-17.687c2.442-7.294,4.925-13.722,9.163-20.428
							C161.229,204.724,156.678,219.24,156.284,233.324z"/>
						<path style="fill:#007EDE;" d="M149.343,204.02c-3.026,6.573-4.436,13.736-5.023,20.915c-0.099,1.128-0.188,2.292-0.253,3.403
							c0.374-1.644,0.767-3.284,1.162-4.923c3.279-14.077,9.386-26.446,17.805-38.553
							C157.375,190.324,152.701,196.911,149.343,204.02z"/>
						<path style="fill:#007EDE;" d="M143.57,210.397c1.12-2.692,1.706-5.554,2.61-8.314
							C144.566,204.549,144.033,207.546,143.57,210.397z"/>
						<path style="fill:#007EDE;" d="M152.229,264.996c-0.707-9.085-1.632-18.157-2.139-27.255
							c-1.621,9.259-0.532,18.728,1.997,27.721c0.088,0.313,0.191,0.671,0.28,0.94C152.313,265.933,152.269,265.465,152.229,264.996
							z"/>
						<path style="fill:#007EDE;" d="M145.323,240.38c-1.781,8.105-0.965,16.415,1.087,24.362
							C146.063,256.62,145.492,248.51,145.323,240.38z"/>
					</g>
				</g>
			</g>
			<g>
				<g>
					<g>
						<path style="fill:#00288C;" d="M271.021,267.176c-1.651-1.163-2.016-3.178-1.815-5.074c0.205-1.938,0.329-4.227,2.08-5.451
							c1.329-0.929,2.931-0.54,3.968,0.516c-0.24-1.444-0.697-2.844-1.442-4.099c-2.274-4.061-6.219-7.434-10.872-8.873
							c-4.047-1.251-8.61-0.939-12.342,1.02c0.922,0.144,1.732,0.72,2.31,1.528c1.742,2.437,0.363,5.313-1.013,7.536
							c-0.755,1.22-1.618,2.384-2.591,3.439c-0.938,1.017-1.98,1.996-3.277,2.525c-1.219,0.497-2.653,0.428-3.61-0.562
							c-0.773-0.799-1.017-1.947-0.982-3.031c0,0.001-0.001,0.003-0.001,0.004c-0.693,3.54-0.031,7.233,1.229,10.612
							c0.521,1.397,1.173,2.797,2.277,3.799c2.156,2.738,5.26,4.753,8.669,5.742c3.409,0.99,7.109,0.95,10.495-0.112
							c3.52-1.389,6.387-3.797,8.355-6.802c0.484-0.739,0.91-1.516,1.282-2.317C272.834,267.839,271.78,267.71,271.021,267.176z"/>
						
							<ellipse transform="matrix(0.2306 -0.973 0.973 0.2306 -54.8233 451.9529)" style="fill:#001752;" cx="258.388" cy="260.645" rx="8.935" ry="8.935"/>
					</g>
					<path style="fill:#001752;" d="M249.898,337.489c-48.289,0-87.575-39.287-87.575-87.576c0-48.29,39.286-87.576,87.575-87.576
						c48.289,0,87.576,39.286,87.576,87.576C337.474,298.203,298.188,337.489,249.898,337.489z M249.898,165.068
						c-46.784,0-84.845,38.061-84.845,84.845c0,46.784,38.061,84.845,84.845,84.845c46.784,0,84.845-38.062,84.845-84.845
						C334.744,203.129,296.682,165.068,249.898,165.068z"/>
					<path style="fill:#00288C;" d="M249.898,320.157c-38.732,0-70.244-31.511-70.244-70.244c0-38.732,31.511-70.244,70.244-70.244
						c38.733,0,70.244,31.512,70.244,70.244C320.143,288.646,288.632,320.157,249.898,320.157z M249.898,181.49
						c-37.729,0-68.423,30.695-68.423,68.424c0,37.729,30.695,68.423,68.423,68.423c37.729,0,68.424-30.694,68.424-68.423
						C318.323,212.184,287.627,181.49,249.898,181.49z"/>
					<path style="fill:#003FDE;" d="M249.898,305.677c-30.748,0-55.764-25.015-55.764-55.763c0-30.748,25.016-55.764,55.764-55.764
						c30.748,0,55.764,25.016,55.764,55.764C305.662,280.661,280.646,305.677,249.898,305.677z M249.898,195.97
						c-29.745,0-53.943,24.199-53.943,53.944c0,29.745,24.199,53.943,53.943,53.943c29.745,0,53.943-24.199,53.943-53.943
						C303.842,220.169,279.643,195.97,249.898,195.97z"/>
					<path style="fill:#007EDE;" d="M250.014,293.814c-24.153,0-43.802-19.65-43.802-43.803c0-24.153,19.65-43.802,43.802-43.802
						c24.152,0,43.802,19.65,43.802,43.802C293.816,274.164,274.166,293.814,250.014,293.814z M250.014,208.723
						c-22.766,0-41.288,18.522-41.288,41.288c0,22.766,18.522,41.288,41.288,41.288c22.766,0,41.288-18.522,41.288-41.288
						C291.302,227.245,272.78,208.723,250.014,208.723z"/>
				</g>
				<g>
					<g>
						<path style="fill:#00288C;" d="M301.129,375.38c-0.448,0.065-0.862,0.04-1.256-0.029l-21.819,21.819
							c-7.479,7.478-17.438,11.596-28.044,11.596c-10.605,0-20.565-4.118-28.043-11.596l-84.36-84.36
							c0.113,1.408,0.233,2.815,0.361,4.222l82.069,82.069c7.994,7.993,18.639,12.396,29.974,12.396
							c11.335,0,21.98-4.402,29.974-12.396l24.131-24.131C303.12,375.105,302.123,375.235,301.129,375.38z"/>
						<path style="fill:#00288C;" d="M362.433,183.367l-82.448-82.448c-8.007-8.007-18.651-12.416-29.974-12.416
							c-11.323,0-21.968,4.409-29.974,12.416l-24.63,24.63c1.314-0.029,2.628-0.055,3.942-0.08l22.619-22.619
							c7.491-7.491,17.45-11.616,28.043-11.616c10.593,0,20.553,4.125,28.044,11.616l83.949,83.949
							C362.023,185.651,362.15,184.507,362.433,183.367z"/>
						<path style="fill:#00288C;" d="M399.101,220.036l-24.805-24.805c0.041,1.32,0.081,2.641,0.1,3.961l22.775,22.775
							c15.462,15.463,15.462,40.624,0,56.087l-83.957,83.957c1.26,0.013,2.521,0.037,3.783,0.078l82.104-82.104
							C415.628,263.456,415.628,236.564,399.101,220.036z"/>
						<path style="fill:#00288C;" d="M125.487,300.691l-22.637-22.637c-7.491-7.491-11.616-17.451-11.616-28.044
							s4.125-20.553,11.616-28.043l84.611-84.612c-1.202-0.065-2.406-0.16-3.609-0.252l-82.933,82.933
							c-8.006,8.006-12.416,18.651-12.416,29.974c0,11.323,4.409,21.968,12.416,29.974l24.793,24.793
							C125.62,303.416,125.547,302.054,125.487,300.691z"/>
						<path style="fill:#00288C;" d="M124.514,285.355c-0.059-0.977,0.193-1.731,0.622-2.292c-0.017-0.265-0.034-0.531-0.052-0.796
							l-13.224-13.224c-5.084-5.083-7.884-11.842-7.884-19.033c0-7.19,2.8-13.949,7.884-19.033l93.691-93.691
							c-1.353,0.082-2.706,0.152-4.06,0.199l-91.561,91.561c-5.6,5.6-8.683,13.045-8.683,20.964c0,7.919,3.084,15.364,8.683,20.963
							l14.602,14.603C124.527,285.502,124.519,285.429,124.514,285.355z"/>
						<path style="fill:#00288C;" d="M281.493,375.709l-12.45,12.45c-10.493,10.494-27.57,10.495-38.066,0l-94.361-94.361
							c0.027,1.324,0.064,2.648,0.111,3.972l92.32,92.32c5.78,5.779,13.372,8.67,20.964,8.67c7.592,0,15.184-2.891,20.963-8.67
							l14.733-14.733C284.299,375.489,282.895,375.601,281.493,375.709z"/>
						<path style="fill:#00288C;" d="M363.405,202.361l-92.432-92.432c-5.599-5.6-13.044-8.684-20.963-8.684
							c-7.919,0-15.364,3.084-20.964,8.684l-15.214,15.214c1.325-0.036,2.65-0.069,3.975-0.114l13.169-13.169
							c5.084-5.084,11.843-7.883,19.033-7.883c7.191,0,13.949,2.8,19.033,7.883l94.369,94.369
							C363.439,204.94,363.434,203.651,363.405,202.361z"/>
						<path style="fill:#00288C;" d="M390.09,229.046l-15.938-15.938c-0.059,1.218-0.128,2.436-0.208,3.653l14.216,14.216
							c5.075,5.076,7.871,11.835,7.871,19.033c0,7.198-2.795,13.957-7.871,19.033l-93.806,93.806
							c1.407-0.139,2.815-0.257,4.223-0.362l91.513-91.513c5.592-5.591,8.671-13.036,8.671-20.963
							C398.761,242.082,395.681,234.637,390.09,229.046z"/>
					</g>
					<g>
						<path style="fill:#00288C;" d="M373.888,165.786v120.795c0.792-0.672,1.578-1.349,2.358-2.034
							c0.125-0.122,0.247-0.246,0.373-0.368V165.786c0-11.323-4.409-21.968-12.416-29.974c-8.006-8.006-18.651-12.416-29.974-12.416
							h-34.211l2.73,2.73h31.481c10.593,0,20.553,4.125,28.043,11.616C369.762,145.233,373.888,155.192,373.888,165.786z"/>
						<path style="fill:#00288C;" d="M373.888,303.507v30.736c-0.001,21.867-17.792,39.659-39.66,39.659H213.469
							c0.65,0.891,1.279,1.801,1.889,2.73h118.871c23.373-0.001,42.389-19.016,42.39-42.39v-33.792
							C375.719,301.48,374.808,302.498,373.888,303.507z"/>
						<path style="fill:#00288C;" d="M165.772,373.902c-10.576-0.001-20.53-4.131-28.029-11.63
							c-7.499-7.499-11.629-17.453-11.63-28.029v-120.56c-0.905,0.743-1.809,1.487-2.73,2.213v118.347
							c0.001,11.305,4.415,21.945,12.43,29.96c8.015,8.015,18.655,12.429,29.96,12.43h34.561c-0.762-0.918-1.532-1.827-2.309-2.73
							H165.772z"/>
						<path style="fill:#00288C;" d="M283.465,123.396H165.772c-11.322,0-21.968,4.409-29.974,12.416
							c-8.006,8.007-12.416,18.651-12.416,29.974v34.121c0.911-0.842,1.82-1.686,2.73-2.529v-31.592
							c0-10.594,4.126-20.553,11.616-28.044c7.491-7.491,17.45-11.616,28.043-11.616h119.766
							C284.831,125.23,284.139,124.322,283.465,123.396z"/>
						<path style="fill:#00288C;" d="M361.145,165.785V297.46c0.897-0.832,1.808-1.648,2.73-2.454v-129.22
							c0.001-7.918-3.083-15.363-8.683-20.963c-5.6-5.6-13.045-8.683-20.964-8.683H312.76l2.73,2.73h18.738
							c7.19,0,13.949,2.8,19.033,7.884C358.346,151.837,361.145,158.596,361.145,165.785z"/>
						<path style="fill:#00288C;" d="M294.71,136.139H165.772c-7.919,0-15.364,3.084-20.964,8.683
							c-5.6,5.6-8.684,13.045-8.683,20.963v22.273c0.911-0.852,1.821-1.706,2.73-2.559v-19.714c0-7.189,2.799-13.948,7.884-19.033
							c5.084-5.084,11.843-7.884,19.033-7.884h131.927C296.681,137.978,295.688,137.065,294.71,136.139z"/>
						<path style="fill:#00288C;" d="M165.772,361.159c-14.84,0.001-26.916-12.074-26.917-26.917v-132.1
							c-0.897,0.9-1.814,1.78-2.73,2.66v129.44c0,8.173,3.325,15.586,8.693,20.954c5.369,5.369,12.781,8.693,20.954,8.693h22.684
							c-1.007-0.932-2.038-1.842-3.09-2.73H165.772z"/>
						<path style="fill:#00288C;" d="M361.145,316.319v17.923c0,7.178-2.803,13.934-7.893,19.024
							c-5.09,5.09-11.846,7.893-19.024,7.893H202.242c0.902,0.902,1.796,1.812,2.679,2.73h129.307
							c7.907,0.001,15.349-3.087,20.954-8.692c5.606-5.606,8.692-13.048,8.693-20.955v-20.496
							C362.972,314.611,362.062,315.469,361.145,316.319z"/>
					</g>
				</g>
			</g>
		</g>
	</g>
</g>
</svg>
